<mxfile host="65bd71144e">
    <diagram id="8te7wb21LjJar14m4qgC" name="Page-1">
        <mxGraphModel dx="520" dy="787" grid="1" gridSize="10" guides="1" tooltips="1" connect="1" arrows="1" fold="1" page="1" pageScale="1" pageWidth="850" pageHeight="1100" math="0" shadow="0">
            <root>
                <mxCell id="0"/>
                <mxCell id="1" parent="0"/>
                <mxCell id="2" value="NewsLibs!!!" style="rounded=0;whiteSpace=wrap;html=1;fontSize=24;" parent="1" vertex="1">
                    <mxGeometry x="40" y="40" width="760" height="60" as="geometry"/>
                </mxCell>
                <mxCell id="3" value="&lt;br&gt;&lt;font style=&quot;font-size: 36px;&quot;&gt;New York Destroyed&lt;/font&gt;&lt;br&gt;&lt;span style=&quot;font-family: &amp;quot;Open Sans&amp;quot;, Arial, sans-serif; font-size: 14px; text-align: justify;&quot;&gt;&lt;br&gt;Sed ut perspiciatis unde omnis iste natus error sit voluptatem accusantium &lt;b&gt;&lt;font color=&quot;#f00202&quot;&gt;doloremque &lt;/font&gt;&lt;/b&gt;laudantium, totam rem aperiam, eaque ipsa quae ab illo inventore &lt;b&gt;&lt;font color=&quot;#f00202&quot;&gt;veritatis &lt;/font&gt;&lt;/b&gt;et quasi architecto &lt;b&gt;&lt;font color=&quot;#ff0000&quot;&gt;beatae &lt;/font&gt;&lt;/b&gt;vitae &lt;b&gt;&lt;font color=&quot;#ff3333&quot;&gt;dicta &lt;/font&gt;&lt;/b&gt;sunt explicabo. Nemo enim ipsam voluptatem quia voluptas sit &lt;b&gt;&lt;font color=&quot;#f00010&quot;&gt;aspernatur &lt;/font&gt;&lt;/b&gt;aut odit aut fugit, sed quia &lt;b&gt;&lt;font color=&quot;#ff0000&quot;&gt;consequuntur &lt;/font&gt;&lt;/b&gt;magni dolores eos qui ratione voluptatem sequi nesciunt. Neque porro &lt;b&gt;&lt;font color=&quot;#ff0000&quot;&gt;quisquam &lt;/font&gt;&lt;/b&gt;est, qui dolorem ipsum quia dolor sit amet, consectetur, adipisci velit, sed quia non numquam eius modi tempora incidunt ut labore et dolore &lt;font color=&quot;#ff0000&quot;&gt;&lt;b&gt;magnam&lt;/b&gt; &lt;/font&gt;aliquam quaerat voluptatem. Ut enim ad minima veniam, quis nostrum &lt;font color=&quot;#f0071e&quot;&gt;&lt;b&gt;exercitationem &lt;/b&gt;&lt;/font&gt;ullam corporis suscipit laboriosam, nisi ut aliquid ex ea commodi consequatur? Quis autem vel eum iure reprehenderit qui in ea &lt;b&gt;&lt;font color=&quot;#f00000&quot;&gt;voluptate &lt;/font&gt;&lt;/b&gt;velit esse quam nihil molestiae consequatur, vel illum qui dolorem eum fugiat quo voluptas nulla pariatur?&amp;nbsp;&lt;/span&gt;&lt;span style=&quot;font-family: &amp;quot;Open Sans&amp;quot;, Arial, sans-serif; font-size: 14px; text-align: justify;&quot;&gt;Sed ut perspiciatis unde omnis iste natus error sit voluptatem accusantium doloremque laudantium, totam rem aperiam, eaque ipsa quae ab illo inventore veritatis et quasi architecto beatae vitae dicta sunt explicabo. Nemo enim ipsam voluptatem quia voluptas sit aspernatur aut odit aut fugit, sed quia consequuntur magni dolores eos qui ratione voluptatem sequi nesciunt.&lt;/span&gt;" style="rounded=0;whiteSpace=wrap;html=1;fontSize=24;verticalAlign=top;fontColor=default;labelBackgroundColor=default;" parent="1" vertex="1">
                    <mxGeometry x="40" y="120" width="760" height="470" as="geometry"/>
                </mxCell>
                <mxCell id="29" value="&lt;font color=&quot;#ffffff&quot;&gt;Copyright 2023 Group 9&lt;/font&gt;" style="rounded=0;whiteSpace=wrap;html=1;labelBackgroundColor=default;fontColor=#F0071E;" vertex="1" parent="1">
                    <mxGeometry x="40" y="610" width="760" height="30" as="geometry"/>
                </mxCell>
                <mxCell id="30" value="&amp;lt;--- Go Back" style="text;html=1;strokeColor=none;fillColor=none;align=center;verticalAlign=middle;whiteSpace=wrap;rounded=0;labelBackgroundColor=default;fontColor=#00BBFF;" vertex="1" parent="1">
                    <mxGeometry x="50" y="55" width="140" height="30" as="geometry"/>
                </mxCell>
                <mxCell id="31" value="New Puzzle ---&amp;gt;" style="text;html=1;strokeColor=none;fillColor=none;align=center;verticalAlign=middle;whiteSpace=wrap;rounded=0;labelBackgroundColor=default;fontColor=#00BBFF;" vertex="1" parent="1">
                    <mxGeometry x="640" y="55" width="140" height="30" as="geometry"/>
                </mxCell>
            </root>
        </mxGraphModel>
    </diagram>
</mxfile>